<?xml version="1.0" encoding="utf-8" standalone="no"?>
<!DOCTYPE svg PUBLIC "-//W3C//DTD SVG 1.1//EN"
  "http://www.w3.org/Graphics/SVG/1.1/DTD/svg11.dtd">
<svg xmlns:xlink="http://www.w3.org/1999/xlink" width="460.8pt" height="345.6pt" viewBox="0 0 460.8 345.6" xmlns="http://www.w3.org/2000/svg" version="1.1">
 <metadata>
  <rdf:RDF xmlns:dc="http://purl.org/dc/elements/1.1/" xmlns:cc="http://creativecommons.org/ns#" xmlns:rdf="http://www.w3.org/1999/02/22-rdf-syntax-ns#">
   <cc:Work>
    <dc:type rdf:resource="http://purl.org/dc/dcmitype/StillImage"/>
    <dc:date>2025-09-30T13:26:48.580069</dc:date>
    <dc:format>image/svg+xml</dc:format>
    <dc:creator>
     <cc:Agent>
      <dc:title>Matplotlib v3.10.3, https://matplotlib.org/</dc:title>
     </cc:Agent>
    </dc:creator>
   </cc:Work>
  </rdf:RDF>
 </metadata>
 <defs>
  <style type="text/css">*{stroke-linejoin: round; stroke-linecap: butt}</style>
 </defs>
 <g id="figure_1">
  <g id="patch_1">
   <path d="M 0 345.6 
L 460.8 345.6 
L 460.8 0 
L 0 0 
z
" style="fill: #ffffff"/>
  </g>
  <g id="axes_1">
   <g id="PolyCollection_1">
    <path d="M 237.357574 258.449198 
L 211.146207 265.608867 
L 211.968 295.488 
z
" clip-path="url(#p8845396138)" style="fill: #c8c8c8; fill-opacity: 0.05"/>
    <path d="M 248.196793 162.491207 
L 267.015217 159.511265 
L 271.271067 139.416933 
z
" clip-path="url(#p8845396138)" style="fill: #c8c8c8; fill-opacity: 0.05"/>
    <path d="M 357.12 101.952 
L 357.12 53.568 
L 328.370504 82.317496 
z
" clip-path="url(#p8845396138)" style="fill: #c8c8c8; fill-opacity: 0.05"/>
    <path d="M 115.2 295.488 
L 163.584 295.488 
L 144.114657 266.573343 
z
" clip-path="url(#p8845396138)" style="fill: #c8c8c8; fill-opacity: 0.05"/>
    <path d="M 260.352 295.488 
L 237.357574 258.449198 
L 211.968 295.488 
z
" clip-path="url(#p8845396138)" style="fill: #c8c8c8; fill-opacity: 0.05"/>
    <path d="M 260.352 295.488 
L 278.185381 261.364504 
L 237.357574 258.449198 
z
" clip-path="url(#p8845396138)" style="fill: #c8c8c8; fill-opacity: 0.05"/>
    <path d="M 357.12 198.72 
L 321.623796 223.103785 
L 357.12 247.104 
z
" clip-path="url(#p8845396138)" style="fill: #c8c8c8; fill-opacity: 0.05"/>
    <path d="M 278.185381 261.364504 
L 259.589219 233.458337 
L 237.357574 258.449198 
z
" clip-path="url(#p8845396138)" style="fill: #c8c8c8; fill-opacity: 0.05"/>
    <path d="M 271.271067 139.416933 
L 267.015217 159.511265 
L 282.847748 169.482309 
z
" clip-path="url(#p8845396138)" style="fill: #c8c8c8; fill-opacity: 0.05"/>
    <path d="M 163.584 295.488 
L 185.768715 268.76533 
L 144.114657 266.573343 
z
" clip-path="url(#p8845396138)" style="fill: #c8c8c8; fill-opacity: 0.05"/>
    <path d="M 144.114657 266.573343 
L 185.768715 268.76533 
L 173.029314 237.658686 
z
" clip-path="url(#p8845396138)" style="fill: #c8c8c8; fill-opacity: 0.05"/>
    <path d="M 201.349491 209.338509 
L 221.505171 211.968754 
L 224.123207 186.564793 
z
" clip-path="url(#p8845396138)" style="fill: #c8c8c8; fill-opacity: 0.05"/>
    <path d="M 303.004386 149.933979 
L 331.179555 170.545953 
L 329.864312 126.412761 
z
" clip-path="url(#p8845396138)" style="fill: #c8c8c8; fill-opacity: 0.05"/>
    <path d="M 211.968 295.488 
L 185.768715 268.76533 
L 163.584 295.488 
z
" clip-path="url(#p8845396138)" style="fill: #c8c8c8; fill-opacity: 0.05"/>
    <path d="M 357.12 247.104 
L 318.237585 258.983875 
L 357.12 295.488 
z
" clip-path="url(#p8845396138)" style="fill: #c8c8c8; fill-opacity: 0.05"/>
    <path d="M 357.12 101.952 
L 329.864312 126.412761 
L 357.12 150.336 
z
" clip-path="url(#p8845396138)" style="fill: #c8c8c8; fill-opacity: 0.05"/>
    <path d="M 271.271067 139.416933 
L 282.847748 169.482309 
L 303.004386 149.933979 
z
" clip-path="url(#p8845396138)" style="fill: #c8c8c8; fill-opacity: 0.05"/>
    <path d="M 328.370504 82.317496 
L 329.864312 126.412761 
L 357.12 101.952 
z
" clip-path="url(#p8845396138)" style="fill: #c8c8c8; fill-opacity: 0.05"/>
    <path d="M 299.621008 111.066992 
L 329.864312 126.412761 
L 328.370504 82.317496 
z
" clip-path="url(#p8845396138)" style="fill: #c8c8c8; fill-opacity: 0.05"/>
    <path d="M 271.271067 139.416933 
L 303.004386 149.933979 
L 299.621008 111.066992 
z
" clip-path="url(#p8845396138)" style="fill: #c8c8c8; fill-opacity: 0.05"/>
    <path d="M 357.12 295.488 
L 318.237585 258.983875 
L 308.736 295.488 
z
" clip-path="url(#p8845396138)" style="fill: #c8c8c8; fill-opacity: 0.05"/>
    <path d="M 308.736 295.488 
L 278.185381 261.364504 
L 260.352 295.488 
z
" clip-path="url(#p8845396138)" style="fill: #c8c8c8; fill-opacity: 0.05"/>
    <path d="M 357.12 198.72 
L 319.393887 195.5692 
L 321.623796 223.103785 
z
" clip-path="url(#p8845396138)" style="fill: #c8c8c8; fill-opacity: 0.05"/>
    <path d="M 282.847748 169.482309 
L 301.507014 181.971683 
L 303.004386 149.933979 
z
" clip-path="url(#p8845396138)" style="fill: #c8c8c8; fill-opacity: 0.05"/>
    <path d="M 321.623796 223.103785 
L 318.237585 258.983875 
L 357.12 247.104 
z
" clip-path="url(#p8845396138)" style="fill: #c8c8c8; fill-opacity: 0.05"/>
    <path d="M 262.095683 176.390098 
L 248.196793 162.491207 
L 243.109445 181.477445 
z
" clip-path="url(#p8845396138)" style="fill: #c8c8c8; fill-opacity: 0.05"/>
    <path d="M 224.123207 186.564793 
L 221.505171 211.968754 
L 238.022098 200.463683 
z
" clip-path="url(#p8845396138)" style="fill: #c8c8c8; fill-opacity: 0.05"/>
    <path d="M 329.864312 126.412761 
L 331.179555 170.545953 
L 357.12 150.336 
z
" clip-path="url(#p8845396138)" style="fill: #c8c8c8; fill-opacity: 0.05"/>
    <path d="M 235.309198 226.019449 
L 221.505171 211.968754 
L 209.490541 239.732941 
z
" clip-path="url(#p8845396138)" style="fill: #c8c8c8; fill-opacity: 0.05"/>
    <path d="M 173.029314 237.658686 
L 209.490541 239.732941 
L 201.349491 209.338509 
z
" clip-path="url(#p8845396138)" style="fill: #c8c8c8; fill-opacity: 0.05"/>
    <path d="M 259.589219 233.458337 
L 235.309198 226.019449 
L 237.357574 258.449198 
z
" clip-path="url(#p8845396138)" style="fill: #c8c8c8; fill-opacity: 0.05"/>
    <path d="M 235.309198 226.019449 
L 252.218455 213.350239 
L 238.022098 200.463683 
z
" clip-path="url(#p8845396138)" style="fill: #c8c8c8; fill-opacity: 0.05"/>
    <path d="M 308.736 295.488 
L 318.237585 258.983875 
L 278.185381 261.364504 
z
" clip-path="url(#p8845396138)" style="fill: #c8c8c8; fill-opacity: 0.05"/>
    <path d="M 243.109445 181.477445 
L 257.177836 195.277865 
L 262.095683 176.390098 
z
" clip-path="url(#p8845396138)" style="fill: #c8c8c8; fill-opacity: 0.05"/>
    <path d="M 238.022098 200.463683 
L 257.177836 195.277865 
L 243.109445 181.477445 
z
" clip-path="url(#p8845396138)" style="fill: #c8c8c8; fill-opacity: 0.05"/>
    <path d="M 209.490541 239.732941 
L 221.505171 211.968754 
L 201.349491 209.338509 
z
" clip-path="url(#p8845396138)" style="fill: #c8c8c8; fill-opacity: 0.05"/>
    <path d="M 321.623796 223.103785 
L 290.834303 232.356292 
L 318.237585 258.983875 
z
" clip-path="url(#p8845396138)" style="fill: #c8c8c8; fill-opacity: 0.05"/>
    <path d="M 235.309198 226.019449 
L 209.490541 239.732941 
L 237.357574 258.449198 
z
" clip-path="url(#p8845396138)" style="fill: #c8c8c8; fill-opacity: 0.05"/>
    <path d="M 301.507014 181.971683 
L 331.179555 170.545953 
L 303.004386 149.933979 
z
" clip-path="url(#p8845396138)" style="fill: #c8c8c8; fill-opacity: 0.05"/>
    <path d="M 238.022098 200.463683 
L 221.505171 211.968754 
L 235.309198 226.019449 
z
" clip-path="url(#p8845396138)" style="fill: #c8c8c8; fill-opacity: 0.05"/>
    <path d="M 257.177836 195.277865 
L 278.09651 190.640869 
L 262.095683 176.390098 
z
" clip-path="url(#p8845396138)" style="fill: #c8c8c8; fill-opacity: 0.05"/>
    <path d="M 303.004386 149.933979 
L 329.864312 126.412761 
L 299.621008 111.066992 
z
" clip-path="url(#p8845396138)" style="fill: #c8c8c8; fill-opacity: 0.05"/>
    <path d="M 357.12 150.336 
L 331.179555 170.545953 
L 357.12 198.72 
z
" clip-path="url(#p8845396138)" style="fill: #c8c8c8; fill-opacity: 0.05"/>
    <path d="M 278.09651 190.640869 
L 282.847748 169.482309 
L 262.095683 176.390098 
z
" clip-path="url(#p8845396138)" style="fill: #c8c8c8; fill-opacity: 0.05"/>
    <path d="M 262.095683 176.390098 
L 267.015217 159.511265 
L 248.196793 162.491207 
z
" clip-path="url(#p8845396138)" style="fill: #c8c8c8; fill-opacity: 0.05"/>
    <path d="M 318.237585 258.983875 
L 290.834303 232.356292 
L 278.185381 261.364504 
z
" clip-path="url(#p8845396138)" style="fill: #c8c8c8; fill-opacity: 0.05"/>
    <path d="M 173.029314 237.658686 
L 185.768715 268.76533 
L 209.490541 239.732941 
z
" clip-path="url(#p8845396138)" style="fill: #c8c8c8; fill-opacity: 0.05"/>
    <path d="M 278.185381 261.364504 
L 290.834303 232.356292 
L 259.589219 233.458337 
z
" clip-path="url(#p8845396138)" style="fill: #c8c8c8; fill-opacity: 0.05"/>
    <path d="M 259.589219 233.458337 
L 252.218455 213.350239 
L 235.309198 226.019449 
z
" clip-path="url(#p8845396138)" style="fill: #c8c8c8; fill-opacity: 0.05"/>
    <path d="M 278.09651 190.640869 
L 301.507014 181.971683 
L 282.847748 169.482309 
z
" clip-path="url(#p8845396138)" style="fill: #c8c8c8; fill-opacity: 0.05"/>
    <path d="M 331.179555 170.545953 
L 319.393887 195.5692 
L 357.12 198.72 
z
" clip-path="url(#p8845396138)" style="fill: #c8c8c8; fill-opacity: 0.05"/>
    <path d="M 257.177836 195.277865 
L 270.993925 211.53186 
L 278.09651 190.640869 
z
" clip-path="url(#p8845396138)" style="fill: #c8c8c8; fill-opacity: 0.05"/>
    <path d="M 209.490541 239.732941 
L 211.146207 265.608867 
L 237.357574 258.449198 
z
" clip-path="url(#p8845396138)" style="fill: #c8c8c8; fill-opacity: 0.05"/>
    <path d="M 238.022098 200.463683 
L 252.218455 213.350239 
L 257.177836 195.277865 
z
" clip-path="url(#p8845396138)" style="fill: #c8c8c8; fill-opacity: 0.05"/>
    <path d="M 282.847748 169.482309 
L 267.015217 159.511265 
L 262.095683 176.390098 
z
" clip-path="url(#p8845396138)" style="fill: #c8c8c8; fill-opacity: 0.05"/>
    <path d="M 185.768715 268.76533 
L 211.146207 265.608867 
L 209.490541 239.732941 
z
" clip-path="url(#p8845396138)" style="fill: #c8c8c8; fill-opacity: 0.05"/>
    <path d="M 296.375911 205.695393 
L 290.834303 232.356292 
L 321.623796 223.103785 
z
" clip-path="url(#p8845396138)" style="fill: #c8c8c8; fill-opacity: 0.05"/>
    <path d="M 211.968 295.488 
L 211.146207 265.608867 
L 185.768715 268.76533 
z
" clip-path="url(#p8845396138)" style="fill: #c8c8c8; fill-opacity: 0.05"/>
    <path d="M 259.589219 233.458337 
L 290.834303 232.356292 
L 270.993925 211.53186 
z
" clip-path="url(#p8845396138)" style="fill: #c8c8c8; fill-opacity: 0.05"/>
    <path d="M 321.623796 223.103785 
L 319.393887 195.5692 
L 296.375911 205.695393 
z
" clip-path="url(#p8845396138)" style="fill: #c8c8c8; fill-opacity: 0.05"/>
    <path d="M 257.177836 195.277865 
L 252.218455 213.350239 
L 270.993925 211.53186 
z
" clip-path="url(#p8845396138)" style="fill: #c8c8c8; fill-opacity: 0.05"/>
    <path d="M 278.09651 190.640869 
L 296.375911 205.695393 
L 301.507014 181.971683 
z
" clip-path="url(#p8845396138)" style="fill: #c8c8c8; fill-opacity: 0.05"/>
    <path d="M 270.993925 211.53186 
L 296.375911 205.695393 
L 278.09651 190.640869 
z
" clip-path="url(#p8845396138)" style="fill: #c8c8c8; fill-opacity: 0.05"/>
    <path d="M 270.993925 211.53186 
L 290.834303 232.356292 
L 296.375911 205.695393 
z
" clip-path="url(#p8845396138)" style="fill: #c8c8c8; fill-opacity: 0.05"/>
    <path d="M 301.507014 181.971683 
L 319.393887 195.5692 
L 331.179555 170.545953 
z
" clip-path="url(#p8845396138)" style="fill: #c8c8c8; fill-opacity: 0.05"/>
    <path d="M 296.375911 205.695393 
L 319.393887 195.5692 
L 301.507014 181.971683 
z
" clip-path="url(#p8845396138)" style="fill: #c8c8c8; fill-opacity: 0.05"/>
    <path d="M 270.993925 211.53186 
L 252.218455 213.350239 
L 259.589219 233.458337 
z
" clip-path="url(#p8845396138)" style="fill: #c8c8c8; fill-opacity: 0.05"/>
    <path d="M 271.271067 139.416933 
L 251.176735 143.672783 
L 248.196793 162.491207 
z
" clip-path="url(#p8845396138)" style="fill: #c8c8c8; fill-opacity: 0.05"/>
    <path d="M 115.2 198.72 
L 143.705793 223.18473 
L 153.320508 176.401063 
z
" clip-path="url(#p8845396138)" style="fill: #c8c8c8; fill-opacity: 0.05"/>
    <path d="M 357.12 53.568 
L 308.736 53.568 
L 328.370504 82.317496 
z
" clip-path="url(#p8845396138)" style="fill: #c8c8c8; fill-opacity: 0.05"/>
    <path d="M 115.2 295.488 
L 144.114657 266.573343 
L 115.2 247.104 
z
" clip-path="url(#p8845396138)" style="fill: #c8c8c8; fill-opacity: 0.05"/>
    <path d="M 115.2 198.72 
L 153.320508 176.401063 
L 115.2 150.336 
z
" clip-path="url(#p8845396138)" style="fill: #c8c8c8; fill-opacity: 0.05"/>
    <path d="M 187.197622 87.795869 
L 214.788592 88.338758 
L 211.968 53.568 
z
" clip-path="url(#p8845396138)" style="fill: #c8c8c8; fill-opacity: 0.05"/>
    <path d="M 153.320508 176.401063 
L 149.503781 133.014392 
L 115.2 150.336 
z
" clip-path="url(#p8845396138)" style="fill: #c8c8c8; fill-opacity: 0.05"/>
    <path d="M 163.584 53.568 
L 187.197622 87.795869 
L 211.968 53.568 
z
" clip-path="url(#p8845396138)" style="fill: #c8c8c8; fill-opacity: 0.05"/>
    <path d="M 153.320508 176.401063 
L 177.439995 151.69585 
L 149.503781 133.014392 
z
" clip-path="url(#p8845396138)" style="fill: #c8c8c8; fill-opacity: 0.05"/>
    <path d="M 241.205691 127.840252 
L 251.176735 143.672783 
L 271.271067 139.416933 
z
" clip-path="url(#p8845396138)" style="fill: #c8c8c8; fill-opacity: 0.05"/>
    <path d="M 144.114657 266.573343 
L 143.705793 223.18473 
L 115.2 247.104 
z
" clip-path="url(#p8845396138)" style="fill: #c8c8c8; fill-opacity: 0.05"/>
    <path d="M 173.029314 237.658686 
L 143.705793 223.18473 
L 144.114657 266.573343 
z
" clip-path="url(#p8845396138)" style="fill: #c8c8c8; fill-opacity: 0.05"/>
    <path d="M 224.123207 186.564793 
L 199.857047 189.567171 
L 201.349491 209.338509 
z
" clip-path="url(#p8845396138)" style="fill: #c8c8c8; fill-opacity: 0.05"/>
    <path d="M 284.275239 80.823688 
L 240.142047 79.508445 
L 260.754021 107.683614 
z
" clip-path="url(#p8845396138)" style="fill: #c8c8c8; fill-opacity: 0.05"/>
    <path d="M 115.2 247.104 
L 143.705793 223.18473 
L 115.2 198.72 
z
" clip-path="url(#p8845396138)" style="fill: #c8c8c8; fill-opacity: 0.05"/>
    <path d="M 115.2 53.568 
L 151.66974 92.324321 
L 163.584 53.568 
z
" clip-path="url(#p8845396138)" style="fill: #c8c8c8; fill-opacity: 0.05"/>
    <path d="M 260.352 53.568 
L 284.275239 80.823688 
L 308.736 53.568 
z
" clip-path="url(#p8845396138)" style="fill: #c8c8c8; fill-opacity: 0.05"/>
    <path d="M 260.754021 107.683614 
L 241.205691 127.840252 
L 271.271067 139.416933 
z
" clip-path="url(#p8845396138)" style="fill: #c8c8c8; fill-opacity: 0.05"/>
    <path d="M 308.736 53.568 
L 284.275239 80.823688 
L 328.370504 82.317496 
z
" clip-path="url(#p8845396138)" style="fill: #c8c8c8; fill-opacity: 0.05"/>
    <path d="M 328.370504 82.317496 
L 284.275239 80.823688 
L 299.621008 111.066992 
z
" clip-path="url(#p8845396138)" style="fill: #c8c8c8; fill-opacity: 0.05"/>
    <path d="M 299.621008 111.066992 
L 260.754021 107.683614 
L 271.271067 139.416933 
z
" clip-path="url(#p8845396138)" style="fill: #c8c8c8; fill-opacity: 0.05"/>
    <path d="M 115.2 101.952 
L 151.66974 92.324321 
L 115.2 53.568 
z
" clip-path="url(#p8845396138)" style="fill: #c8c8c8; fill-opacity: 0.05"/>
    <path d="M 115.2 150.336 
L 149.503781 133.014392 
L 115.2 101.952 
z
" clip-path="url(#p8845396138)" style="fill: #c8c8c8; fill-opacity: 0.05"/>
    <path d="M 260.754021 107.683614 
L 229.891931 108.145162 
L 241.205691 127.840252 
z
" clip-path="url(#p8845396138)" style="fill: #c8c8c8; fill-opacity: 0.05"/>
    <path d="M 163.584 53.568 
L 151.66974 92.324321 
L 187.197622 87.795869 
z
" clip-path="url(#p8845396138)" style="fill: #c8c8c8; fill-opacity: 0.05"/>
    <path d="M 234.297902 148.592317 
L 229.210555 167.578555 
L 248.196793 162.491207 
z
" clip-path="url(#p8845396138)" style="fill: #c8c8c8; fill-opacity: 0.05"/>
    <path d="M 210.224317 172.665902 
L 199.857047 189.567171 
L 224.123207 186.564793 
z
" clip-path="url(#p8845396138)" style="fill: #c8c8c8; fill-opacity: 0.05"/>
    <path d="M 260.352 53.568 
L 240.142047 79.508445 
L 284.275239 80.823688 
z
" clip-path="url(#p8845396138)" style="fill: #c8c8c8; fill-opacity: 0.05"/>
    <path d="M 175.439013 202.634086 
L 199.857047 189.567171 
L 183.814414 177.915257 
z
" clip-path="url(#p8845396138)" style="fill: #c8c8c8; fill-opacity: 0.05"/>
    <path d="M 201.349491 209.338509 
L 175.439013 202.634086 
L 173.029314 237.658686 
z
" clip-path="url(#p8845396138)" style="fill: #c8c8c8; fill-opacity: 0.05"/>
    <path d="M 153.320508 176.401063 
L 183.814414 177.915257 
L 177.439995 151.69585 
z
" clip-path="url(#p8845396138)" style="fill: #c8c8c8; fill-opacity: 0.05"/>
    <path d="M 210.224317 172.665902 
L 197.216011 159.116152 
L 183.814414 177.915257 
z
" clip-path="url(#p8845396138)" style="fill: #c8c8c8; fill-opacity: 0.05"/>
    <path d="M 149.503781 133.014392 
L 151.66974 92.324321 
L 115.2 101.952 
z
" clip-path="url(#p8845396138)" style="fill: #c8c8c8; fill-opacity: 0.05"/>
    <path d="M 229.210555 167.578555 
L 215.410135 153.510164 
L 210.224317 172.665902 
z
" clip-path="url(#p8845396138)" style="fill: #c8c8c8; fill-opacity: 0.05"/>
    <path d="M 234.297902 148.592317 
L 215.410135 153.510164 
L 229.210555 167.578555 
z
" clip-path="url(#p8845396138)" style="fill: #c8c8c8; fill-opacity: 0.05"/>
    <path d="M 201.349491 209.338509 
L 199.857047 189.567171 
L 175.439013 202.634086 
z
" clip-path="url(#p8845396138)" style="fill: #c8c8c8; fill-opacity: 0.05"/>
    <path d="M 151.66974 92.324321 
L 178.290949 119.550055 
L 187.197622 87.795869 
z
" clip-path="url(#p8845396138)" style="fill: #c8c8c8; fill-opacity: 0.05"/>
    <path d="M 153.320508 176.401063 
L 175.439013 202.634086 
L 183.814414 177.915257 
z
" clip-path="url(#p8845396138)" style="fill: #c8c8c8; fill-opacity: 0.05"/>
    <path d="M 260.754021 107.683614 
L 240.142047 79.508445 
L 229.891931 108.145162 
z
" clip-path="url(#p8845396138)" style="fill: #c8c8c8; fill-opacity: 0.05"/>
    <path d="M 183.814414 177.915257 
L 199.857047 189.567171 
L 210.224317 172.665902 
z
" clip-path="url(#p8845396138)" style="fill: #c8c8c8; fill-opacity: 0.05"/>
    <path d="M 234.297902 148.592317 
L 220.047131 132.59149 
L 215.410135 153.510164 
z
" clip-path="url(#p8845396138)" style="fill: #c8c8c8; fill-opacity: 0.05"/>
    <path d="M 299.621008 111.066992 
L 284.275239 80.823688 
L 260.754021 107.683614 
z
" clip-path="url(#p8845396138)" style="fill: #c8c8c8; fill-opacity: 0.05"/>
    <path d="M 211.968 53.568 
L 240.142047 79.508445 
L 260.352 53.568 
z
" clip-path="url(#p8845396138)" style="fill: #c8c8c8; fill-opacity: 0.05"/>
    <path d="M 234.297902 148.592317 
L 241.205691 127.840252 
L 220.047131 132.59149 
z
" clip-path="url(#p8845396138)" style="fill: #c8c8c8; fill-opacity: 0.05"/>
    <path d="M 248.196793 162.491207 
L 251.176735 143.672783 
L 234.297902 148.592317 
z
" clip-path="url(#p8845396138)" style="fill: #c8c8c8; fill-opacity: 0.05"/>
    <path d="M 149.503781 133.014392 
L 178.290949 119.550055 
L 151.66974 92.324321 
z
" clip-path="url(#p8845396138)" style="fill: #c8c8c8; fill-opacity: 0.05"/>
    <path d="M 175.439013 202.634086 
L 143.705793 223.18473 
L 173.029314 237.658686 
z
" clip-path="url(#p8845396138)" style="fill: #c8c8c8; fill-opacity: 0.05"/>
    <path d="M 229.891931 108.145162 
L 214.788592 88.338758 
L 204.743361 112.676313 
z
" clip-path="url(#p8845396138)" style="fill: #c8c8c8; fill-opacity: 0.05"/>
    <path d="M 177.439995 151.69585 
L 178.290949 119.550055 
L 149.503781 133.014392 
z
" clip-path="url(#p8845396138)" style="fill: #c8c8c8; fill-opacity: 0.05"/>
    <path d="M 204.743361 112.676313 
L 214.788592 88.338758 
L 187.197622 87.795869 
z
" clip-path="url(#p8845396138)" style="fill: #c8c8c8; fill-opacity: 0.05"/>
    <path d="M 183.814414 177.915257 
L 197.216011 159.116152 
L 177.439995 151.69585 
z
" clip-path="url(#p8845396138)" style="fill: #c8c8c8; fill-opacity: 0.05"/>
    <path d="M 241.205691 127.840252 
L 229.891931 108.145162 
L 220.047131 132.59149 
z
" clip-path="url(#p8845396138)" style="fill: #c8c8c8; fill-opacity: 0.05"/>
    <path d="M 220.047131 132.59149 
L 199.191195 139.793587 
L 215.410135 153.510164 
z
" clip-path="url(#p8845396138)" style="fill: #c8c8c8; fill-opacity: 0.05"/>
    <path d="M 215.410135 153.510164 
L 197.216011 159.116152 
L 210.224317 172.665902 
z
" clip-path="url(#p8845396138)" style="fill: #c8c8c8; fill-opacity: 0.05"/>
    <path d="M 234.297902 148.592317 
L 251.176735 143.672783 
L 241.205691 127.840252 
z
" clip-path="url(#p8845396138)" style="fill: #c8c8c8; fill-opacity: 0.05"/>
    <path d="M 187.197622 87.795869 
L 178.290949 119.550055 
L 204.743361 112.676313 
z
" clip-path="url(#p8845396138)" style="fill: #c8c8c8; fill-opacity: 0.05"/>
    <path d="M 199.191195 139.793587 
L 178.290949 119.550055 
L 177.439995 151.69585 
z
" clip-path="url(#p8845396138)" style="fill: #c8c8c8; fill-opacity: 0.05"/>
    <path d="M 199.191195 139.793587 
L 197.216011 159.116152 
L 215.410135 153.510164 
z
" clip-path="url(#p8845396138)" style="fill: #c8c8c8; fill-opacity: 0.05"/>
    <path d="M 240.142047 79.508445 
L 214.788592 88.338758 
L 229.891931 108.145162 
z
" clip-path="url(#p8845396138)" style="fill: #c8c8c8; fill-opacity: 0.05"/>
    <path d="M 229.891931 108.145162 
L 204.743361 112.676313 
L 220.047131 132.59149 
z
" clip-path="url(#p8845396138)" style="fill: #c8c8c8; fill-opacity: 0.05"/>
    <path d="M 211.968 53.568 
L 214.788592 88.338758 
L 240.142047 79.508445 
z
" clip-path="url(#p8845396138)" style="fill: #c8c8c8; fill-opacity: 0.05"/>
    <path d="M 220.047131 132.59149 
L 204.743361 112.676313 
L 199.191195 139.793587 
z
" clip-path="url(#p8845396138)" style="fill: #c8c8c8; fill-opacity: 0.05"/>
    <path d="M 204.743361 112.676313 
L 178.290949 119.550055 
L 199.191195 139.793587 
z
" clip-path="url(#p8845396138)" style="fill: #c8c8c8; fill-opacity: 0.05"/>
    <path d="M 177.439995 151.69585 
L 197.216011 159.116152 
L 199.191195 139.793587 
z
" clip-path="url(#p8845396138)" style="fill: #c8c8c8; fill-opacity: 0.05"/>
    <path d="M 153.320508 176.401063 
L 143.705793 223.18473 
L 175.439013 202.634086 
z
" clip-path="url(#p8845396138)" style="fill: #c8c8c8; fill-opacity: 0.05"/>
   </g>
   <g id="PolyCollection_2">
    <path d="M 224.123207 186.564793 
L 238.022098 200.463683 
L 243.109445 181.477445 
z
" clip-path="url(#p8845396138)" style="fill: #4374ba; fill-opacity: 0.25"/>
    <path d="M 224.123207 186.564793 
L 243.109445 181.477445 
L 229.210555 167.578555 
z
" clip-path="url(#p8845396138)" style="fill: #4374ba; fill-opacity: 0.25"/>
    <path d="M 224.123207 186.564793 
L 229.210555 167.578555 
L 210.224317 172.665902 
z
" clip-path="url(#p8845396138)" style="fill: #4374ba; fill-opacity: 0.25"/>
    <path d="M 248.196793 162.491207 
L 229.210555 167.578555 
L 243.109445 181.477445 
z
" clip-path="url(#p8845396138)" style="fill: #4374ba; fill-opacity: 0.25"/>
   </g>
   <g id="line2d_1">
    <path d="M 243.109445 181.477445 
L 248.196793 162.491207 
M 229.210555 167.578555 
L 248.196793 162.491207 
M 262.095683 176.390098 
L 248.196793 162.491207 
M 262.095683 176.390098 
L 243.109445 181.477445 
M 234.297902 148.592317 
L 248.196793 162.491207 
M 234.297902 148.592317 
L 229.210555 167.578555 
M 238.022098 200.463683 
L 224.123207 186.564793 
M 238.022098 200.463683 
L 243.109445 181.477445 
M 210.224317 172.665902 
L 224.123207 186.564793 
M 210.224317 172.665902 
L 229.210555 167.578555 
M 144.114657 266.573343 
L 115.2 295.488 
M 173.029314 237.658686 
L 144.114657 266.573343 
M 201.349491 209.338509 
L 224.123207 186.564793 
M 201.349491 209.338509 
L 173.029314 237.658686 
M 328.370504 82.317496 
L 357.12 53.568 
M 299.621008 111.066992 
L 328.370504 82.317496 
M 271.271067 139.416933 
L 248.196793 162.491207 
M 271.271067 139.416933 
L 299.621008 111.066992 
M 357.12 247.104 
L 357.12 295.488 
M 357.12 198.72 
L 357.12 247.104 
M 357.12 150.336 
L 357.12 198.72 
M 357.12 101.952 
L 357.12 53.568 
M 357.12 101.952 
L 328.370504 82.317496 
M 357.12 101.952 
L 357.12 150.336 
M 163.584 295.488 
L 115.2 295.488 
M 163.584 295.488 
L 144.114657 266.573343 
M 211.968 295.488 
L 163.584 295.488 
M 260.352 295.488 
L 211.968 295.488 
M 308.736 295.488 
L 357.12 295.488 
M 308.736 295.488 
L 260.352 295.488 
M 115.2 101.952 
L 115.2 53.568 
M 115.2 150.336 
L 115.2 101.952 
M 115.2 198.72 
L 115.2 150.336 
M 115.2 247.104 
L 115.2 295.488 
M 115.2 247.104 
L 144.114657 266.573343 
M 115.2 247.104 
L 115.2 198.72 
M 308.736 53.568 
L 357.12 53.568 
M 308.736 53.568 
L 328.370504 82.317496 
M 260.352 53.568 
L 308.736 53.568 
M 211.968 53.568 
L 260.352 53.568 
M 163.584 53.568 
L 115.2 53.568 
M 163.584 53.568 
L 211.968 53.568 
M 321.623796 223.103785 
L 357.12 247.104 
M 321.623796 223.103785 
L 357.12 198.72 
M 237.357574 258.449198 
L 211.968 295.488 
M 237.357574 258.449198 
L 260.352 295.488 
M 278.185381 261.364504 
L 260.352 295.488 
M 278.185381 261.364504 
L 308.736 295.488 
M 278.185381 261.364504 
L 237.357574 258.449198 
M 303.004386 149.933979 
L 299.621008 111.066992 
M 303.004386 149.933979 
L 271.271067 139.416933 
M 259.589219 233.458337 
L 237.357574 258.449198 
M 259.589219 233.458337 
L 278.185381 261.364504 
M 257.177836 195.277865 
L 243.109445 181.477445 
M 257.177836 195.277865 
L 262.095683 176.390098 
M 257.177836 195.277865 
L 238.022098 200.463683 
M 278.09651 190.640869 
L 262.095683 176.390098 
M 278.09651 190.640869 
L 257.177836 195.277865 
M 282.847748 169.482309 
L 262.095683 176.390098 
M 282.847748 169.482309 
L 271.271067 139.416933 
M 282.847748 169.482309 
L 303.004386 149.933979 
M 282.847748 169.482309 
L 278.09651 190.640869 
M 301.507014 181.971683 
L 303.004386 149.933979 
M 301.507014 181.971683 
L 278.09651 190.640869 
M 301.507014 181.971683 
L 282.847748 169.482309 
M 235.309198 226.019449 
L 238.022098 200.463683 
M 235.309198 226.019449 
L 237.357574 258.449198 
M 235.309198 226.019449 
L 259.589219 233.458337 
M 209.490541 239.732941 
L 173.029314 237.658686 
M 209.490541 239.732941 
L 201.349491 209.338509 
M 209.490541 239.732941 
L 237.357574 258.449198 
M 209.490541 239.732941 
L 235.309198 226.019449 
M 185.768715 268.76533 
L 144.114657 266.573343 
M 185.768715 268.76533 
L 173.029314 237.658686 
M 185.768715 268.76533 
L 163.584 295.488 
M 185.768715 268.76533 
L 211.968 295.488 
M 185.768715 268.76533 
L 209.490541 239.732941 
M 329.864312 126.412761 
L 328.370504 82.317496 
M 329.864312 126.412761 
L 299.621008 111.066992 
M 329.864312 126.412761 
L 357.12 150.336 
M 329.864312 126.412761 
L 357.12 101.952 
M 329.864312 126.412761 
L 303.004386 149.933979 
M 318.237585 258.983875 
L 357.12 295.488 
M 318.237585 258.983875 
L 357.12 247.104 
M 318.237585 258.983875 
L 308.736 295.488 
M 318.237585 258.983875 
L 321.623796 223.103785 
M 318.237585 258.983875 
L 278.185381 261.364504 
M 331.179555 170.545953 
L 357.12 198.72 
M 331.179555 170.545953 
L 357.12 150.336 
M 331.179555 170.545953 
L 303.004386 149.933979 
M 331.179555 170.545953 
L 301.507014 181.971683 
M 331.179555 170.545953 
L 329.864312 126.412761 
M 270.993925 211.53186 
L 259.589219 233.458337 
M 270.993925 211.53186 
L 257.177836 195.277865 
M 270.993925 211.53186 
L 278.09651 190.640869 
M 296.375911 205.695393 
L 321.623796 223.103785 
M 296.375911 205.695393 
L 278.09651 190.640869 
M 296.375911 205.695393 
L 301.507014 181.971683 
M 296.375911 205.695393 
L 270.993925 211.53186 
M 290.834303 232.356292 
L 321.623796 223.103785 
M 290.834303 232.356292 
L 278.185381 261.364504 
M 290.834303 232.356292 
L 259.589219 233.458337 
M 290.834303 232.356292 
L 318.237585 258.983875 
M 290.834303 232.356292 
L 270.993925 211.53186 
M 290.834303 232.356292 
L 296.375911 205.695393 
M 211.146207 265.608867 
L 211.968 295.488 
M 211.146207 265.608867 
L 237.357574 258.449198 
M 211.146207 265.608867 
L 209.490541 239.732941 
M 211.146207 265.608867 
L 185.768715 268.76533 
M 221.505171 211.968754 
L 224.123207 186.564793 
M 221.505171 211.968754 
L 238.022098 200.463683 
M 221.505171 211.968754 
L 201.349491 209.338509 
M 221.505171 211.968754 
L 235.309198 226.019449 
M 221.505171 211.968754 
L 209.490541 239.732941 
M 319.393887 195.5692 
L 357.12 198.72 
M 319.393887 195.5692 
L 321.623796 223.103785 
M 319.393887 195.5692 
L 301.507014 181.971683 
M 319.393887 195.5692 
L 331.179555 170.545953 
M 319.393887 195.5692 
L 296.375911 205.695393 
M 252.218455 213.350239 
L 238.022098 200.463683 
M 252.218455 213.350239 
L 259.589219 233.458337 
M 252.218455 213.350239 
L 257.177836 195.277865 
M 252.218455 213.350239 
L 235.309198 226.019449 
M 252.218455 213.350239 
L 270.993925 211.53186 
M 267.015217 159.511265 
L 248.196793 162.491207 
M 267.015217 159.511265 
L 262.095683 176.390098 
M 267.015217 159.511265 
L 271.271067 139.416933 
M 267.015217 159.511265 
L 282.847748 169.482309 
M 187.197622 87.795869 
L 211.968 53.568 
M 187.197622 87.795869 
L 163.584 53.568 
M 153.320508 176.401063 
L 115.2 150.336 
M 153.320508 176.401063 
L 115.2 198.72 
M 149.503781 133.014392 
L 115.2 101.952 
M 149.503781 133.014392 
L 115.2 150.336 
M 149.503781 133.014392 
L 153.320508 176.401063 
M 260.754021 107.683614 
L 299.621008 111.066992 
M 260.754021 107.683614 
L 271.271067 139.416933 
M 177.439995 151.69585 
L 153.320508 176.401063 
M 177.439995 151.69585 
L 149.503781 133.014392 
M 215.410135 153.510164 
L 229.210555 167.578555 
M 215.410135 153.510164 
L 234.297902 148.592317 
M 215.410135 153.510164 
L 210.224317 172.665902 
M 220.047131 132.59149 
L 234.297902 148.592317 
M 220.047131 132.59149 
L 215.410135 153.510164 
M 241.205691 127.840252 
L 234.297902 148.592317 
M 241.205691 127.840252 
L 271.271067 139.416933 
M 241.205691 127.840252 
L 260.754021 107.683614 
M 241.205691 127.840252 
L 220.047131 132.59149 
M 229.891931 108.145162 
L 260.754021 107.683614 
M 229.891931 108.145162 
L 220.047131 132.59149 
M 229.891931 108.145162 
L 241.205691 127.840252 
M 183.814414 177.915257 
L 210.224317 172.665902 
M 183.814414 177.915257 
L 153.320508 176.401063 
M 183.814414 177.915257 
L 177.439995 151.69585 
M 175.439013 202.634086 
L 173.029314 237.658686 
M 175.439013 202.634086 
L 201.349491 209.338509 
M 175.439013 202.634086 
L 153.320508 176.401063 
M 175.439013 202.634086 
L 183.814414 177.915257 
M 143.705793 223.18473 
L 144.114657 266.573343 
M 143.705793 223.18473 
L 173.029314 237.658686 
M 143.705793 223.18473 
L 115.2 198.72 
M 143.705793 223.18473 
L 115.2 247.104 
M 143.705793 223.18473 
L 153.320508 176.401063 
M 143.705793 223.18473 
L 175.439013 202.634086 
M 284.275239 80.823688 
L 328.370504 82.317496 
M 284.275239 80.823688 
L 299.621008 111.066992 
M 284.275239 80.823688 
L 308.736 53.568 
M 284.275239 80.823688 
L 260.352 53.568 
M 284.275239 80.823688 
L 260.754021 107.683614 
M 151.66974 92.324321 
L 115.2 53.568 
M 151.66974 92.324321 
L 115.2 101.952 
M 151.66974 92.324321 
L 163.584 53.568 
M 151.66974 92.324321 
L 187.197622 87.795869 
M 151.66974 92.324321 
L 149.503781 133.014392 
M 240.142047 79.508445 
L 260.352 53.568 
M 240.142047 79.508445 
L 211.968 53.568 
M 240.142047 79.508445 
L 260.754021 107.683614 
M 240.142047 79.508445 
L 229.891931 108.145162 
M 240.142047 79.508445 
L 284.275239 80.823688 
M 199.191195 139.793587 
L 177.439995 151.69585 
M 199.191195 139.793587 
L 215.410135 153.510164 
M 199.191195 139.793587 
L 220.047131 132.59149 
M 204.743361 112.676313 
L 187.197622 87.795869 
M 204.743361 112.676313 
L 220.047131 132.59149 
M 204.743361 112.676313 
L 229.891931 108.145162 
M 204.743361 112.676313 
L 199.191195 139.793587 
M 178.290949 119.550055 
L 187.197622 87.795869 
M 178.290949 119.550055 
L 149.503781 133.014392 
M 178.290949 119.550055 
L 177.439995 151.69585 
M 178.290949 119.550055 
L 151.66974 92.324321 
M 178.290949 119.550055 
L 199.191195 139.793587 
M 178.290949 119.550055 
L 204.743361 112.676313 
M 199.857047 189.567171 
L 224.123207 186.564793 
M 199.857047 189.567171 
L 210.224317 172.665902 
M 199.857047 189.567171 
L 201.349491 209.338509 
M 199.857047 189.567171 
L 183.814414 177.915257 
M 199.857047 189.567171 
L 175.439013 202.634086 
M 214.788592 88.338758 
L 211.968 53.568 
M 214.788592 88.338758 
L 187.197622 87.795869 
M 214.788592 88.338758 
L 229.891931 108.145162 
M 214.788592 88.338758 
L 240.142047 79.508445 
M 214.788592 88.338758 
L 204.743361 112.676313 
M 197.216011 159.116152 
L 210.224317 172.665902 
M 197.216011 159.116152 
L 177.439995 151.69585 
M 197.216011 159.116152 
L 215.410135 153.510164 
M 197.216011 159.116152 
L 183.814414 177.915257 
M 197.216011 159.116152 
L 199.191195 139.793587 
M 251.176735 143.672783 
L 248.196793 162.491207 
M 251.176735 143.672783 
L 234.297902 148.592317 
M 251.176735 143.672783 
L 271.271067 139.416933 
M 251.176735 143.672783 
L 241.205691 127.840252 
L 241.205691 127.840252 
" clip-path="url(#p8845396138)" style="fill: none; stroke: #787878; stroke-width: 0.75; stroke-linecap: round"/>
   </g>
   <g id="line2d_2">
    <path d="M 243.109445 181.477445 
L 248.196793 162.491207 
M 243.109445 181.477445 
L 224.123207 186.564793 
M 229.210555 167.578555 
L 248.196793 162.491207 
M 229.210555 167.578555 
L 224.123207 186.564793 
M 229.210555 167.578555 
L 243.109445 181.477445 
M 238.022098 200.463683 
L 224.123207 186.564793 
M 238.022098 200.463683 
L 243.109445 181.477445 
M 210.224317 172.665902 
L 224.123207 186.564793 
M 210.224317 172.665902 
L 229.210555 167.578555 
" clip-path="url(#p8845396138)" style="fill: none; stroke: #4374ba; stroke-width: 1.5; stroke-linecap: round"/>
   </g>
   <g id="line2d_3"/>
   <g id="line2d_4"/>
   <g id="line2d_5">
    <path d="M 115.2 295.488 
L 144.114657 266.573343 
" clip-path="url(#p8845396138)" style="fill: none; stroke: #4374ba; stroke-width: 3; stroke-linecap: round"/>
   </g>
   <g id="line2d_6">
    <path d="M 144.114657 266.573343 
L 173.029314 237.658686 
" clip-path="url(#p8845396138)" style="fill: none; stroke: #4374ba; stroke-width: 3; stroke-linecap: round"/>
   </g>
   <g id="line2d_7">
    <path d="M 173.029314 237.658686 
L 201.349491 209.338509 
" clip-path="url(#p8845396138)" style="fill: none; stroke: #4374ba; stroke-width: 3; stroke-linecap: round"/>
   </g>
   <g id="line2d_8">
    <path d="M 201.349491 209.338509 
L 224.123207 186.564793 
" clip-path="url(#p8845396138)" style="fill: none; stroke: #4374ba; stroke-width: 3; stroke-linecap: round"/>
   </g>
   <g id="line2d_9">
    <path d="M 357.12 53.568 
L 328.370504 82.317496 
" clip-path="url(#p8845396138)" style="fill: none; stroke: #4374ba; stroke-width: 3; stroke-linecap: round"/>
   </g>
   <g id="line2d_10">
    <path d="M 328.370504 82.317496 
L 299.621008 111.066992 
" clip-path="url(#p8845396138)" style="fill: none; stroke: #4374ba; stroke-width: 3; stroke-linecap: round"/>
   </g>
   <g id="line2d_11">
    <path d="M 299.621008 111.066992 
L 271.271067 139.416933 
" clip-path="url(#p8845396138)" style="fill: none; stroke: #4374ba; stroke-width: 3; stroke-linecap: round"/>
   </g>
   <g id="line2d_12">
    <path d="M 271.271067 139.416933 
L 248.196793 162.491207 
" clip-path="url(#p8845396138)" style="fill: none; stroke: #4374ba; stroke-width: 3; stroke-linecap: round"/>
   </g>
   <g id="line2d_13">
    <path d="M 248.196793 162.491207 
L 262.095683 176.390098 
" clip-path="url(#p8845396138)" style="fill: none; stroke: #4374ba; stroke-width: 3; stroke-linecap: round"/>
   </g>
   <g id="line2d_14">
    <path d="M 248.196793 162.491207 
L 234.297902 148.592317 
" clip-path="url(#p8845396138)" style="fill: none; stroke: #4374ba; stroke-width: 3; stroke-linecap: round"/>
   </g>
   <g id="line2d_15">
    <path d="M 224.123207 186.564793 
L 238.022098 200.463683 
" clip-path="url(#p8845396138)" style="fill: none; stroke: #4374ba; stroke-width: 3; stroke-linecap: round"/>
   </g>
   <g id="line2d_16">
    <path d="M 224.123207 186.564793 
L 210.224317 172.665902 
" clip-path="url(#p8845396138)" style="fill: none; stroke: #4374ba; stroke-width: 3; stroke-linecap: round"/>
   </g>
   <g id="line2d_17">
    <path d="M 210.224317 172.665902 
L 229.210555 167.578555 
" clip-path="url(#p8845396138)" style="fill: none; stroke: #4374ba; stroke-width: 3; stroke-linecap: round"/>
   </g>
   <g id="line2d_18">
    <path d="M 229.210555 167.578555 
L 248.196793 162.491207 
" clip-path="url(#p8845396138)" style="fill: none; stroke: #4374ba; stroke-width: 3; stroke-linecap: round"/>
   </g>
   <g id="line2d_19">
    <path d="M 238.022098 200.463683 
L 243.109445 181.477445 
" clip-path="url(#p8845396138)" style="fill: none; stroke: #4374ba; stroke-width: 3; stroke-linecap: round"/>
   </g>
   <g id="line2d_20">
    <path d="M 243.109445 181.477445 
L 248.196793 162.491207 
" clip-path="url(#p8845396138)" style="fill: none; stroke: #4374ba; stroke-width: 3; stroke-linecap: round"/>
   </g>
  </g>
 </g>
 <defs>
  <clipPath id="p8845396138">
   <rect x="57.6" y="41.472" width="357.12" height="266.112"/>
  </clipPath>
 </defs>
</svg>
